<svg width="31" height="39" viewBox="0 0 31 39" fill="none" xmlns="http://www.w3.org/2000/svg">
<path d="M24.875 0.75H2.375C1.87772 0.75 1.40081 0.947544 1.04918 1.29917C0.697544 1.65081 0.5 2.12772 0.5 2.625V32.625C0.5 33.1223 0.697544 33.5992 1.04918 33.9508C1.40081 34.3025 1.87772 34.5 2.375 34.5H4.25V36.375C4.25 36.8723 4.44754 37.3492 4.79917 37.7008C5.15081 38.0525 5.62772 38.25 6.125 38.25C6.62228 38.25 7.09919 38.0525 7.45082 37.7008C7.80245 37.3492 8 36.8723 8 36.375V34.5H24.875C26.3668 34.5 27.7976 33.9074 28.8525 32.8525C29.9074 31.7976 30.5 30.3669 30.5 28.875V6.375C30.5 4.88316 29.9074 3.45242 28.8525 2.39753C27.7976 1.34263 26.3668 0.75 24.875 0.75ZM19.25 30.75H4.25V4.5H19.25V30.75ZM26.75 28.875C26.75 29.3723 26.5525 29.8492 26.2008 30.2008C25.8492 30.5525 25.3723 30.75 24.875 30.75H23V4.5H24.875C25.3723 4.5 25.8492 4.69755 26.2008 5.04918C26.5525 5.40081 26.75 5.87772 26.75 6.375V28.875Z" fill="black"/>
</svg>
