<svg width="39" height="43" viewBox="0 0 39 43" fill="none" xmlns="http://www.w3.org/2000/svg">
<path d="M19.5 34.5857C19.8708 34.5857 20.2334 34.4753 20.5417 34.2685C20.85 34.0616 21.0904 33.7676 21.2323 33.4236C21.3742 33.0796 21.4113 32.7011 21.339 32.3359C21.2666 31.9707 21.0881 31.6353 20.8258 31.372C20.5636 31.1087 20.2295 30.9294 19.8658 30.8567C19.5021 30.7841 19.1251 30.8214 18.7825 30.9639C18.4399 31.1064 18.147 31.3477 17.941 31.6572C17.735 31.9668 17.625 32.3308 17.625 32.7032C17.625 33.2024 17.8225 33.6813 18.1742 34.0343C18.5258 34.3874 19.0027 34.5857 19.5 34.5857ZM28.875 34.5857C29.2458 34.5857 29.6084 34.4753 29.9167 34.2685C30.225 34.0616 30.4654 33.7676 30.6073 33.4236C30.7492 33.0796 30.7863 32.7011 30.714 32.3359C30.6416 31.9707 30.4631 31.6353 30.2008 31.372C29.9386 31.1087 29.6045 30.9294 29.2408 30.8567C28.8771 30.7841 28.5001 30.8214 28.1575 30.9639C27.8149 31.1064 27.522 31.3477 27.316 31.6572C27.11 31.9668 27 32.3308 27 32.7032C27 33.2024 27.1976 33.6813 27.5492 34.0343C27.9008 34.3874 28.3777 34.5857 28.875 34.5857ZM28.875 27.0554C29.2458 27.0554 29.6084 26.945 29.9167 26.7381C30.225 26.5313 30.4654 26.2373 30.6073 25.8933C30.7492 25.5493 30.7863 25.1707 30.714 24.8056C30.6416 24.4404 30.4631 24.1049 30.2008 23.8416C29.9386 23.5784 29.6045 23.3991 29.2408 23.3264C28.8771 23.2538 28.5001 23.2911 28.1575 23.4336C27.8149 23.576 27.522 23.8173 27.316 24.1269C27.11 24.4365 27 24.8005 27 25.1728C27 25.6721 27.1976 26.151 27.5492 26.504C27.9008 26.8571 28.3777 27.0554 28.875 27.0554ZM19.5 27.0554C19.8708 27.0554 20.2334 26.945 20.5417 26.7381C20.85 26.5313 21.0904 26.2373 21.2323 25.8933C21.3742 25.5493 21.4113 25.1707 21.339 24.8056C21.2666 24.4404 21.0881 24.1049 20.8258 23.8416C20.5636 23.5784 20.2295 23.3991 19.8658 23.3264C19.5021 23.2538 19.1251 23.2911 18.7825 23.4336C18.4399 23.576 18.147 23.8173 17.941 24.1269C17.735 24.4365 17.625 24.8005 17.625 25.1728C17.625 25.6721 17.8225 26.151 18.1742 26.504C18.5258 26.8571 19.0027 27.0554 19.5 27.0554ZM32.625 4.46444H30.75V2.58186C30.75 2.08257 30.5525 1.60373 30.2008 1.25067C29.8492 0.897622 29.3723 0.69928 28.875 0.69928C28.3777 0.69928 27.9008 0.897622 27.5492 1.25067C27.1976 1.60373 27 2.08257 27 2.58186V4.46444H12V2.58186C12 2.08257 11.8025 1.60373 11.4508 1.25067C11.0992 0.897622 10.6223 0.69928 10.125 0.69928C9.62772 0.69928 9.15081 0.897622 8.79918 1.25067C8.44755 1.60373 8.25 2.08257 8.25 2.58186V4.46444H6.375C4.88316 4.46444 3.45242 5.05947 2.39753 6.11863C1.34263 7.17778 0.75 8.61431 0.75 10.1122V36.4683C0.75 37.9662 1.34263 39.4027 2.39753 40.4619C3.45242 41.521 4.88316 42.1161 6.375 42.1161H32.625C34.1169 42.1161 35.5476 41.521 36.6025 40.4619C37.6574 39.4027 38.25 37.9662 38.25 36.4683V10.1122C38.25 8.61431 37.6574 7.17778 36.6025 6.11863C35.5476 5.05947 34.1169 4.46444 32.625 4.46444ZM34.5 36.4683C34.5 36.9676 34.3025 37.4464 33.9508 37.7995C33.5992 38.1526 33.1223 38.3509 32.625 38.3509H6.375C5.87772 38.3509 5.40081 38.1526 5.04918 37.7995C4.69755 37.4464 4.5 36.9676 4.5 36.4683V19.5251H34.5V36.4683ZM34.5 15.7599H4.5V10.1122C4.5 9.61289 4.69755 9.13405 5.04918 8.781C5.40081 8.42795 5.87772 8.2296 6.375 8.2296H8.25V10.1122C8.25 10.6115 8.44755 11.0903 8.79918 11.4434C9.15081 11.7964 9.62772 11.9948 10.125 11.9948C10.6223 11.9948 11.0992 11.7964 11.4508 11.4434C11.8025 11.0903 12 10.6115 12 10.1122V8.2296H27V10.1122C27 10.6115 27.1976 11.0903 27.5492 11.4434C27.9008 11.7964 28.3777 11.9948 28.875 11.9948C29.3723 11.9948 29.8492 11.7964 30.2008 11.4434C30.5525 11.0903 30.75 10.6115 30.75 10.1122V8.2296H32.625C33.1223 8.2296 33.5992 8.42795 33.9508 8.781C34.3025 9.13405 34.5 9.61289 34.5 10.1122V15.7599ZM10.125 27.0554C10.4958 27.0554 10.8584 26.945 11.1667 26.7381C11.475 26.5313 11.7154 26.2373 11.8573 25.8933C11.9992 25.5493 12.0363 25.1707 11.964 24.8056C11.8916 24.4404 11.7131 24.1049 11.4508 23.8416C11.1886 23.5784 10.8545 23.3991 10.4908 23.3264C10.1271 23.2538 9.75008 23.2911 9.40747 23.4336C9.06486 23.576 8.77203 23.8173 8.566 24.1269C8.35997 24.4365 8.25 24.8005 8.25 25.1728C8.25 25.6721 8.44755 26.151 8.79918 26.504C9.15081 26.8571 9.62772 27.0554 10.125 27.0554ZM10.125 34.5857C10.4958 34.5857 10.8584 34.4753 11.1667 34.2685C11.475 34.0616 11.7154 33.7676 11.8573 33.4236C11.9992 33.0796 12.0363 32.7011 11.964 32.3359C11.8916 31.9707 11.7131 31.6353 11.4508 31.372C11.1886 31.1087 10.8545 30.9294 10.4908 30.8567C10.1271 30.7841 9.75008 30.8214 9.40747 30.9639C9.06486 31.1064 8.77203 31.3477 8.566 31.6572C8.35997 31.9668 8.25 32.3308 8.25 32.7032C8.25 33.2024 8.44755 33.6813 8.79918 34.0343C9.15081 34.3874 9.62772 34.5857 10.125 34.5857Z" fill="black"/>
</svg>
