<svg width="45" height="45" viewBox="0 0 45 45" fill="none" xmlns="http://www.w3.org/2000/svg">
<path d="M0 22.5C0 23.0967 0.296317 23.669 0.823763 24.091C1.35121 24.5129 2.06658 24.75 2.8125 24.75H24.1594L17.6906 29.9025C17.427 30.1117 17.2178 30.3605 17.075 30.6347C16.9322 30.9089 16.8587 31.203 16.8587 31.5C16.8587 31.797 16.9322 32.0911 17.075 32.3653C17.2178 32.6395 17.427 32.8883 17.6906 33.0975C17.9521 33.3084 18.2631 33.4758 18.6059 33.59C18.9486 33.7042 19.3162 33.763 19.6875 33.763C20.0588 33.763 20.4264 33.7042 20.7691 33.59C21.1119 33.4758 21.4229 33.3084 21.6844 33.0975L32.9344 24.0975C33.1904 23.8835 33.3911 23.6312 33.525 23.355C33.8063 22.8072 33.8063 22.1928 33.525 21.645C33.3911 21.3688 33.1904 21.1165 32.9344 20.9025L21.6844 11.9025C21.4221 11.6927 21.1108 11.5263 20.7682 11.4128C20.4256 11.2992 20.0584 11.2408 19.6875 11.2408C19.3166 11.2408 18.9494 11.2992 18.6068 11.4128C18.2642 11.5263 17.9529 11.6927 17.6906 11.9025C17.4284 12.1123 17.2204 12.3613 17.0785 12.6354C16.9365 12.9095 16.8635 13.2033 16.8635 13.5C16.8635 13.7967 16.9365 14.0905 17.0785 14.3646C17.2204 14.6387 17.4284 14.8877 17.6906 15.0975L24.1594 20.25H2.8125C2.06658 20.25 1.35121 20.4871 0.823763 20.909C0.296317 21.331 0 21.9033 0 22.5V22.5ZM36.5625 0H8.4375C6.19974 0 4.05362 0.711159 2.47129 1.97703C0.888949 3.2429 0 4.95979 0 6.75V13.5C0 14.0967 0.296317 14.669 0.823763 15.091C1.35121 15.5129 2.06658 15.75 2.8125 15.75C3.55842 15.75 4.27379 15.5129 4.80124 15.091C5.32868 14.669 5.625 14.0967 5.625 13.5V6.75C5.625 6.15326 5.92132 5.58097 6.44876 5.15901C6.97621 4.73705 7.69158 4.5 8.4375 4.5H36.5625C37.3084 4.5 38.0238 4.73705 38.5512 5.15901C39.0787 5.58097 39.375 6.15326 39.375 6.75V38.25C39.375 38.8467 39.0787 39.419 38.5512 39.841C38.0238 40.2629 37.3084 40.5 36.5625 40.5H8.4375C7.69158 40.5 6.97621 40.2629 6.44876 39.841C5.92132 39.419 5.625 38.8467 5.625 38.25V31.5C5.625 30.9033 5.32868 30.331 4.80124 29.909C4.27379 29.4871 3.55842 29.25 2.8125 29.25C2.06658 29.25 1.35121 29.4871 0.823763 29.909C0.296317 30.331 0 30.9033 0 31.5V38.25C0 40.0402 0.888949 41.7571 2.47129 43.023C4.05362 44.2888 6.19974 45 8.4375 45H36.5625C38.8003 45 40.9464 44.2888 42.5287 43.023C44.1111 41.7571 45 40.0402 45 38.25V6.75C45 4.95979 44.1111 3.2429 42.5287 1.97703C40.9464 0.711159 38.8003 0 36.5625 0Z" fill="black"/>
</svg>
