<svg width="35" height="39" viewBox="0 0 35 39" fill="none" xmlns="http://www.w3.org/2000/svg">
<path d="M32.5 12.0606L21.25 2.15826C20.2187 1.23211 18.8836 0.720093 17.5 0.720093C16.1164 0.720093 14.7813 1.23211 13.75 2.15826L2.49999 12.0606C1.90444 12.5954 1.42918 13.2515 1.10588 13.9851C0.782577 14.7187 0.618643 15.5131 0.624995 16.3153V32.769C0.624995 34.2669 1.21763 35.7034 2.27252 36.7626C3.32741 37.8218 4.75815 38.4168 6.24999 38.4168H28.75C30.2418 38.4168 31.6726 37.8218 32.7275 36.7626C33.7824 35.7034 34.375 34.2669 34.375 32.769V16.2964C34.3787 15.4974 34.2135 14.7067 33.8902 13.9765C33.567 13.2463 33.0932 12.5933 32.5 12.0606V12.0606ZM21.25 34.6516H13.75V25.2387C13.75 24.7394 13.9475 24.2606 14.2992 23.9075C14.6508 23.5545 15.1277 23.3561 15.625 23.3561H19.375C19.8723 23.3561 20.3492 23.5545 20.7008 23.9075C21.0524 24.2606 21.25 24.7394 21.25 25.2387V34.6516ZM30.625 32.769C30.625 33.2683 30.4274 33.7472 30.0758 34.1002C29.7242 34.4533 29.2473 34.6516 28.75 34.6516H25V25.2387C25 23.7408 24.4074 22.3043 23.3525 21.2451C22.2976 20.186 20.8668 19.591 19.375 19.591H15.625C14.1332 19.591 12.7024 20.186 11.6475 21.2451C10.5926 22.3043 9.99999 23.7408 9.99999 25.2387V34.6516H6.24999C5.75271 34.6516 5.2758 34.4533 4.92417 34.1002C4.57254 33.7472 4.37499 33.2683 4.37499 32.769V16.2964C4.37533 16.0291 4.43236 15.765 4.54228 15.5215C4.6522 15.2781 4.81249 15.0609 5.01249 14.8845L16.2625 5.00096C16.6047 4.69914 17.0445 4.53269 17.5 4.53269C17.9554 4.53269 18.3953 4.69914 18.7375 5.00096L29.9875 14.8845C30.1875 15.0609 30.3478 15.2781 30.4577 15.5215C30.5676 15.765 30.6247 16.0291 30.625 16.2964V32.769Z" fill="black"/>
</svg>
