<svg width="39" height="23" viewBox="0 0 39 23" fill="none" xmlns="http://www.w3.org/2000/svg">
<path d="M3.95626 19.6672C3.77794 19.4958 3.56767 19.3615 3.33751 19.2719C2.88102 19.0836 2.369 19.0836 1.91251 19.2719C1.68235 19.3615 1.47208 19.4958 1.29376 19.6672C1.12306 19.8463 0.989248 20.0574 0.900009 20.2885C0.756422 20.6313 0.717192 21.0092 0.787269 21.3744C0.857345 21.7396 1.03359 22.0758 1.29376 22.3405C1.47601 22.5068 1.68529 22.6405 1.91251 22.7358C2.13695 22.8354 2.37963 22.8869 2.62501 22.8869C2.87039 22.8869 3.11307 22.8354 3.33751 22.7358C3.56473 22.6405 3.77401 22.5068 3.95626 22.3405C4.21643 22.0758 4.39267 21.7396 4.46275 21.3744C4.53283 21.0092 4.4936 20.6313 4.35001 20.2885C4.26077 20.0574 4.12696 19.8463 3.95626 19.6672ZM10.125 4.06063H36.375C36.8723 4.06063 37.3492 3.86229 37.7008 3.50924C38.0525 3.15619 38.25 2.67734 38.25 2.17805C38.25 1.67876 38.0525 1.19992 37.7008 0.846867C37.3492 0.493814 36.8723 0.295471 36.375 0.295471H10.125C9.62773 0.295471 9.15082 0.493814 8.79918 0.846867C8.44755 1.19992 8.25001 1.67876 8.25001 2.17805C8.25001 2.67734 8.44755 3.15619 8.79918 3.50924C9.15082 3.86229 9.62773 4.06063 10.125 4.06063ZM3.95626 10.2543C3.69259 9.9931 3.35776 9.81615 2.99403 9.74579C2.6303 9.67543 2.25397 9.71482 1.91251 9.85898C1.68529 9.95432 1.47601 10.088 1.29376 10.2543C1.12306 10.4334 0.989248 10.6445 0.900009 10.8756C0.800811 11.1009 0.749573 11.3446 0.749573 11.591C0.749573 11.8373 0.800811 12.081 0.900009 12.3063C0.994962 12.5345 1.12814 12.7446 1.29376 12.9276C1.47601 13.0939 1.68529 13.2276 1.91251 13.3229C2.13695 13.4225 2.37963 13.474 2.62501 13.474C2.87039 13.474 3.11307 13.4225 3.33751 13.3229C3.56473 13.2276 3.77401 13.0939 3.95626 12.9276C4.12188 12.7446 4.25506 12.5345 4.35001 12.3063C4.44921 12.081 4.50045 11.8373 4.50045 11.591C4.50045 11.3446 4.44921 11.1009 4.35001 10.8756C4.26077 10.6445 4.12696 10.4334 3.95626 10.2543ZM36.375 9.70838H10.125C9.62773 9.70838 9.15082 9.90672 8.79918 10.2598C8.44755 10.6128 8.25001 11.0917 8.25001 11.591C8.25001 12.0902 8.44755 12.5691 8.79918 12.9221C9.15082 13.2752 9.62773 13.4735 10.125 13.4735H36.375C36.8723 13.4735 37.3492 13.2752 37.7008 12.9221C38.0525 12.5691 38.25 12.0902 38.25 11.591C38.25 11.0917 38.0525 10.6128 37.7008 10.2598C37.3492 9.90672 36.8723 9.70838 36.375 9.70838ZM3.95626 0.84142C3.77794 0.670028 3.56767 0.535678 3.33751 0.446078C2.99605 0.301911 2.61971 0.262522 2.25598 0.332882C1.89225 0.403242 1.55743 0.580197 1.29376 0.84142C1.12814 1.02441 0.994962 1.23453 0.900009 1.46267C0.800811 1.68802 0.749573 1.93168 0.749573 2.17805C0.749573 2.42443 0.800811 2.66809 0.900009 2.89343C0.994962 3.12157 1.12814 3.3317 1.29376 3.51468C1.47601 3.68098 1.68529 3.81469 1.91251 3.91003C2.25397 4.05419 2.6303 4.09358 2.99403 4.02322C3.35776 3.95286 3.69259 3.77591 3.95626 3.51468C4.12188 3.3317 4.25506 3.12157 4.35001 2.89343C4.44921 2.66809 4.50045 2.42443 4.50045 2.17805C4.50045 1.93168 4.44921 1.68802 4.35001 1.46267C4.25506 1.23453 4.12188 1.02441 3.95626 0.84142ZM36.375 19.1213H10.125C9.62773 19.1213 9.15082 19.3196 8.79918 19.6727C8.44755 20.0257 8.25001 20.5046 8.25001 21.0039C8.25001 21.5032 8.44755 21.982 8.79918 22.3351C9.15082 22.6881 9.62773 22.8864 10.125 22.8864H36.375C36.8723 22.8864 37.3492 22.6881 37.7008 22.3351C38.0525 21.982 38.25 21.5032 38.25 21.0039C38.25 20.5046 38.0525 20.0257 37.7008 19.6727C37.3492 19.3196 36.8723 19.1213 36.375 19.1213Z" fill="black"/>
</svg>
