<svg width="39" height="38" viewBox="0 0 39 38" fill="none" xmlns="http://www.w3.org/2000/svg">
<path d="M26.4562 20.3522C28.2945 18.9001 29.6362 16.9088 30.2948 14.6554C30.9534 12.402 30.8961 9.99853 30.1308 7.77935C29.3656 5.56017 27.9305 3.63565 26.0251 2.27353C24.1198 0.911419 21.839 0.179443 19.5 0.179443C17.161 0.179443 14.8802 0.911419 12.9749 2.27353C11.0695 3.63565 9.63439 5.56017 8.86914 7.77935C8.10389 9.99853 8.04658 12.402 8.70517 14.6554C9.36376 16.9088 10.7055 18.9001 12.5437 20.3522C9.39389 21.6193 6.64553 23.7208 4.59167 26.4328C2.5378 29.1448 1.25542 32.3655 0.881244 35.7517C0.854159 35.999 0.875837 36.2491 0.945041 36.4879C1.01425 36.7267 1.12962 36.9495 1.28458 37.1436C1.59753 37.5355 2.05271 37.7865 2.54999 37.8414C3.04727 37.8963 3.54592 37.7507 3.93623 37.4364C4.32654 37.1222 4.57654 36.6652 4.63124 36.1659C5.04297 32.4858 6.79066 29.087 9.5404 26.6189C12.2902 24.1508 15.8492 22.7865 19.5375 22.7865C23.2258 22.7865 26.7848 24.1508 29.5346 26.6189C32.2843 29.087 34.032 32.4858 34.4437 36.1659C34.4947 36.6285 34.7146 37.0557 35.0608 37.3651C35.4071 37.6746 35.8552 37.8442 36.3187 37.8414H36.525C37.0165 37.7846 37.4657 37.5351 37.7748 37.1472C38.0839 36.7593 38.2277 36.2645 38.175 35.7706C37.799 32.3748 36.5098 29.1457 34.4453 26.4296C32.3809 23.7134 29.6192 21.6126 26.4562 20.3522ZM19.5 19.0156C18.0166 19.0156 16.5666 18.5739 15.3332 17.7465C14.0998 16.9191 13.1386 15.743 12.5709 14.367C12.0032 12.991 11.8547 11.4769 12.1441 10.0162C12.4335 8.55544 13.1478 7.21367 14.1967 6.16053C15.2456 5.1074 16.582 4.3902 18.0368 4.09964C19.4917 3.80908 20.9997 3.95821 22.3701 4.52816C23.7406 5.09811 24.9119 6.06329 25.736 7.30165C26.5601 8.54 27 9.99592 27 11.4853C27 13.4824 26.2098 15.3978 24.8033 16.81C23.3968 18.2222 21.4891 19.0156 19.5 19.0156Z" fill="black"/>
</svg>
