<svg width="21" height="16" viewBox="0 0 21 16" fill="none" xmlns="http://www.w3.org/2000/svg">
<path d="M17.42 4.22002C16.809 2.81602 15.7545 1.65109 14.4181 0.903744C13.0817 0.156394 11.5371 -0.132151 10.021 0.0823263C8.50489 0.296803 7.10094 1.00247 6.02427 2.09119C4.9476 3.17991 4.2576 4.59163 4.06001 6.11002C3.1066 6.33834 2.27023 6.90885 1.70975 7.71321C1.14927 8.51756 0.903696 9.49974 1.01968 10.4732C1.13566 11.4467 1.60511 12.3437 2.33888 12.9939C3.07265 13.644 4.01964 14.0021 5.00001 14C5.26523 14 5.51958 13.8947 5.70712 13.7071C5.89466 13.5196 6.00001 13.2652 6.00001 13C6.00001 12.7348 5.89466 12.4804 5.70712 12.2929C5.51958 12.1054 5.26523 12 5.00001 12C4.46958 12 3.96087 11.7893 3.5858 11.4142C3.21073 11.0392 3.00001 10.5304 3.00001 10C3.00001 9.46958 3.21073 8.96088 3.5858 8.5858C3.96087 8.21073 4.46958 8.00002 5.00001 8.00002C5.26523 8.00002 5.51958 7.89466 5.70712 7.70712C5.89466 7.51959 6.00001 7.26523 6.00001 7.00002C6.00257 5.8173 6.4243 4.67377 7.19028 3.7726C7.95627 2.87143 9.0169 2.27097 10.1838 2.07789C11.3506 1.88481 12.5481 2.11162 13.5636 2.71803C14.579 3.32443 15.3466 4.27116 15.73 5.39002C15.7872 5.56186 15.8899 5.71495 16.0273 5.83295C16.1647 5.95095 16.3315 6.02943 16.51 6.06002C17.1761 6.18589 17.7799 6.53362 18.223 7.04655C18.6662 7.55948 18.9226 8.20738 18.9504 8.88466C18.9782 9.56194 18.7759 10.2287 18.3763 10.7762C17.9767 11.3238 17.4035 11.7199 16.75 11.9C16.4928 11.9663 16.2724 12.1321 16.1373 12.3609C16.0023 12.5897 15.9637 12.8628 16.03 13.12C16.0963 13.3773 16.2621 13.5977 16.4909 13.7327C16.7197 13.8677 16.9928 13.9063 17.25 13.84C18.3024 13.5619 19.2353 12.948 19.907 12.0915C20.5787 11.235 20.9526 10.1826 20.9718 9.09429C20.9911 8.00595 20.6546 6.94106 20.0136 6.06134C19.3725 5.18161 18.4619 4.53512 17.42 4.22002ZM11.71 6.29002C11.6149 6.19898 11.5028 6.12761 11.38 6.08002C11.1366 5.98 10.8635 5.98 10.62 6.08002C10.4973 6.12761 10.3851 6.19898 10.29 6.29002L7.29001 9.29002C7.10171 9.47832 6.99592 9.73372 6.99592 10C6.99592 10.2663 7.10171 10.5217 7.29001 10.71C7.47832 10.8983 7.73371 11.0041 8.00001 11.0041C8.26631 11.0041 8.52171 10.8983 8.71001 10.71L10 9.41002V15C10 15.2652 10.1054 15.5196 10.2929 15.7071C10.4804 15.8947 10.7348 16 11 16C11.2652 16 11.5196 15.8947 11.7071 15.7071C11.8947 15.5196 12 15.2652 12 15V9.41002L13.29 10.71C13.383 10.8037 13.4936 10.8781 13.6154 10.9289C13.7373 10.9797 13.868 11.0058 14 11.0058C14.132 11.0058 14.2627 10.9797 14.3846 10.9289C14.5064 10.8781 14.617 10.8037 14.71 10.71C14.8037 10.6171 14.8781 10.5065 14.9289 10.3846C14.9797 10.2627 15.0058 10.132 15.0058 10C15.0058 9.86801 14.9797 9.7373 14.9289 9.61544C14.8781 9.49358 14.8037 9.38298 14.71 9.29002L11.71 6.29002Z" fill="#767676"/>
</svg>
