<svg width="45" height="45" viewBox="0 0 45 45" fill="none" xmlns="http://www.w3.org/2000/svg">
<path d="M39.375 19.6875H37.5V17.8125C37.5 17.3152 37.3025 16.8383 36.9508 16.4867C36.5992 16.135 36.1223 15.9375 35.625 15.9375C35.1277 15.9375 34.6508 16.135 34.2992 16.4867C33.9475 16.8383 33.75 17.3152 33.75 17.8125V19.6875H31.875C31.3777 19.6875 30.9008 19.885 30.5492 20.2367C30.1975 20.5883 30 21.0652 30 21.5625C30 22.0598 30.1975 22.5367 30.5492 22.8883C30.9008 23.24 31.3777 23.4375 31.875 23.4375H33.75V25.3125C33.75 25.8098 33.9475 26.2867 34.2992 26.6383C34.6508 26.99 35.1277 27.1875 35.625 27.1875C36.1223 27.1875 36.5992 26.99 36.9508 26.6383C37.3025 26.2867 37.5 25.8098 37.5 25.3125V23.4375H39.375C39.8723 23.4375 40.3492 23.24 40.7008 22.8883C41.0525 22.5367 41.25 22.0598 41.25 21.5625C41.25 21.0652 41.0525 20.5883 40.7008 20.2367C40.3492 19.885 39.8723 19.6875 39.375 19.6875ZM24.9375 22.9125C25.938 22.0465 26.7404 20.9754 27.2904 19.7719C27.8404 18.5684 28.125 17.2607 28.125 15.9375C28.125 13.4511 27.1373 11.0665 25.3791 9.30837C23.621 7.55022 21.2364 6.5625 18.75 6.5625C16.2636 6.5625 13.879 7.55022 12.1209 9.30837C10.3627 11.0665 9.375 13.4511 9.375 15.9375C9.37499 17.2607 9.65963 18.5684 10.2096 19.7719C10.7596 20.9754 11.562 22.0465 12.5625 22.9125C9.93776 24.101 7.71087 26.0204 6.14809 28.441C4.5853 30.8617 3.75276 33.6812 3.75 36.5625C3.75 37.0598 3.94754 37.5367 4.29917 37.8883C4.65081 38.24 5.12772 38.4375 5.625 38.4375C6.12228 38.4375 6.59919 38.24 6.95083 37.8883C7.30246 37.5367 7.5 37.0598 7.5 36.5625C7.5 33.5788 8.68526 30.7173 10.795 28.6075C12.9048 26.4978 15.7663 25.3125 18.75 25.3125C21.7337 25.3125 24.5952 26.4978 26.705 28.6075C28.8147 30.7173 30 33.5788 30 36.5625C30 37.0598 30.1975 37.5367 30.5492 37.8883C30.9008 38.24 31.3777 38.4375 31.875 38.4375C32.3723 38.4375 32.8492 38.24 33.2008 37.8883C33.5525 37.5367 33.75 37.0598 33.75 36.5625C33.7472 33.6812 32.9147 30.8617 31.3519 28.441C29.7891 26.0204 27.5622 24.101 24.9375 22.9125V22.9125ZM18.75 21.5625C17.6375 21.5625 16.5499 21.2326 15.6249 20.6145C14.6999 19.9964 13.9789 19.1179 13.5532 18.0901C13.1274 17.0623 13.016 15.9313 13.2331 14.8401C13.4501 13.749 13.9859 12.7467 14.7725 11.96C15.5592 11.1734 16.5615 10.6376 17.6526 10.4206C18.7438 10.2035 19.8748 10.3149 20.9026 10.7407C21.9304 11.1664 22.8089 11.8874 23.427 12.8124C24.0451 13.7374 24.375 14.825 24.375 15.9375C24.375 17.4293 23.7824 18.8601 22.7275 19.915C21.6726 20.9699 20.2418 21.5625 18.75 21.5625Z" fill="black"/>
</svg>
